<svg viewBox="0 0 8 5" fill="none" xmlns="http://www.w3.org/2000/svg">
<path fill-rule="evenodd" clip-rule="evenodd" d="M4.70766 4.536C4.52013 4.72347 4.26583 4.82879 4.00066 4.82879C3.7355 4.82879 3.48119 4.72347 3.29366 4.536L0.464662 1.707C0.324792 1.56709 0.229566 1.38883 0.19103 1.19479C0.152494 1.00074 0.172381 0.799624 0.248175 0.616884C0.323969 0.434143 0.452264 0.27799 0.616827 0.168182C0.781391 0.0583735 0.974827 -0.00015534 1.17266 3.09641e-07H6.82866C7.0265 -0.00015534 7.21993 0.0583735 7.3845 0.168182C7.54906 0.27799 7.67736 0.434143 7.75315 0.616884C7.82894 0.799624 7.84883 1.00074 7.81029 1.19479C7.77176 1.38883 7.67653 1.56709 7.53666 1.707L4.70766 4.536Z" />
</svg>
