<svg  viewBox="0 0 10 16" fill="none" xmlns="http://www.w3.org/2000/svg">
<path fill-rule="evenodd" clip-rule="evenodd" d="M0.939657 9.06088C0.658756 8.77963 0.500977 8.39838 0.500977 8.00088C0.500977 7.60338 0.658756 7.22213 0.939657 6.94088L6.59566 1.28288C6.87705 1.00161 7.25865 0.843656 7.65651 0.84375C7.85351 0.843796 8.04857 0.882644 8.23056 0.958076C8.41254 1.03351 8.57789 1.14404 8.71716 1.28338C8.85642 1.42271 8.96688 1.58811 9.04223 1.77013C9.11757 1.95215 9.15633 2.14723 9.15628 2.34423C9.15624 2.54123 9.11739 2.73629 9.04196 2.91828C8.96653 3.10026 8.85599 3.26561 8.71666 3.40488L4.12166 8.00088L8.71766 12.5969C8.86099 12.7352 8.97534 12.9006 9.05404 13.0836C9.13273 13.2666 9.1742 13.4634 9.17603 13.6626C9.17785 13.8617 9.13999 14.0593 9.06466 14.2436C8.98932 14.428 8.87802 14.5955 8.73725 14.7365C8.59648 14.8774 8.42905 14.9888 8.24475 15.0643C8.06044 15.1398 7.86294 15.1779 7.66377 15.1762C7.4646 15.1746 7.26775 15.1333 7.08471 15.0548C6.90167 14.9763 6.73609 14.8621 6.59766 14.7189L0.937657 9.06088H0.939657Z"/>
</svg>
