<svg width="50" height="50" viewBox="0 0 50 50" fill="none" xmlns="http://www.w3.org/2000/svg">
<path d="M25 0C38.8075 0 50 11.1925 50 25C50 38.8075 38.8075 50 25 50C11.1925 50 0 38.8075 0 25C0 11.1925 11.1925 0 25 0ZM25 32.5C24.337 32.5 23.7011 32.7634 23.2322 33.2322C22.7634 33.7011 22.5 34.337 22.5 35C22.5 35.663 22.7634 36.2989 23.2322 36.7678C23.7011 37.2366 24.337 37.5 25 37.5C25.663 37.5 26.2989 37.2366 26.7678 36.7678C27.2366 36.2989 27.5 35.663 27.5 35C27.5 34.337 27.2366 33.7011 26.7678 33.2322C26.2989 32.7634 25.663 32.5 25 32.5ZM25 10C24.3877 10.0001 23.7967 10.2249 23.3391 10.6318C22.8815 11.0387 22.5891 11.5994 22.5175 12.2075L22.5 12.5V27.5C22.5007 28.1372 22.7447 28.7501 23.1821 29.2134C23.6195 29.6768 24.2174 29.9556 24.8535 29.9929C25.4896 30.0303 26.1159 29.8233 26.6046 29.4143C27.0932 29.0054 27.4072 28.4252 27.4825 27.7925L27.5 27.5V12.5C27.5 11.837 27.2366 11.2011 26.7678 10.7322C26.2989 10.2634 25.663 10 25 10Z" />
</svg>
