<svg xmlns="http://www.w3.org/2000/svg" viewBox="0 0 14 14" fill="none">
  <path d="M6.99996 12.8333C3.7783 12.8333 1.16663 10.2216 1.16663 7C1.16663 3.77834 3.7783 1.16667 6.99996 1.16667C10.2216 1.16667 12.8333 3.77834 12.8333 7C12.8333 10.2216 10.2216 12.8333 6.99996 12.8333ZM6.99996 11.6667C9.5773 11.6667 11.6666 9.57735 11.6666 7C11.6666 4.42267 9.5773 2.33334 6.99996 2.33334C4.42263 2.33334 2.33329 4.42267 2.33329 7C2.33329 9.57735 4.42263 11.6667 6.99996 11.6667ZM6.41663 8.75H7.58329V9.91667H6.41663V8.75ZM6.41663 4.08334H7.58329V7.58334H6.41663V4.08334Z" />
</svg>