<svg  viewBox="0 0 19 19"  xmlns="http://www.w3.org/2000/svg">
<g
scale="0.8"
>
<path d="M18.875 9.17187V18.1719C18.875 18.3708 18.796 18.5616 18.6553 18.7022C18.5147 18.8429 18.3239 18.9219 18.125 18.9219H1.62501C1.4261 18.9219 1.23533 18.8429 1.09468 18.7022C0.954027 18.5616 0.875009 18.3708 0.875009 18.1719V9.17187C0.874308 8.97467 0.912817 8.77929 0.9883 8.5971C1.06378 8.41491 1.17473 8.24955 1.3147 8.11062L8.8147 0.610623C9.09597 0.329531 9.47736 0.171631 9.87501 0.171631C10.2727 0.171631 10.654 0.329531 10.9353 0.610623L18.4353 8.11062C18.5753 8.24955 18.6862 8.41491 18.7617 8.5971C18.8372 8.77929 18.8757 8.97467 18.875 9.17187Z" />
</g>
</svg>
