<svg  viewBox="0 0 25 25" fill="none" xmlns="http://www.w3.org/2000/svg">
<path d="M21.9119 11.439L14.4119 3.93899C14.1306 3.6579 13.7492 3.5 13.3516 3.5C12.9539 3.5 12.5725 3.6579 12.2913 3.93899L4.79126 11.439C4.65129 11.5779 4.54035 11.7433 4.46486 11.9255C4.38938 12.1077 4.35087 12.303 4.35157 12.5002V21.5002C4.35157 21.6992 4.43059 21.8899 4.57124 22.0306C4.71189 22.1712 4.90266 22.2502 5.10157 22.2502H21.6016C21.8005 22.2502 21.9913 22.1712 22.1319 22.0306C22.2726 21.8899 22.3516 21.6992 22.3516 21.5002V12.5002C22.3523 12.303 22.3138 12.1077 22.2383 11.9255C22.1628 11.7433 22.0518 11.5779 21.9119 11.439ZM20.8516 20.7502H5.85157V12.5002L13.3516 5.00024L20.8516 12.5002V20.7502Z" fill="#868C98"/>
</svg>
