<svg  viewBox="0 0 25 25" fill="none" xmlns="http://www.w3.org/2000/svg">
<path d="M9.14943 4.3906C9.1007 4.19855 9.12994 3.99503 9.23076 3.82447C9.33159 3.65391 9.49581 3.53017 9.68756 3.48029C11.2864 3.06793 12.9637 3.06793 14.5626 3.48029C14.7397 3.52563 14.8941 3.63408 14.9968 3.78528C15.0996 3.93647 15.1436 4.11998 15.1206 4.30133C15.0975 4.48268 15.0091 4.64937 14.8718 4.77008C14.7345 4.89079 14.5579 4.95721 14.3751 4.95685C14.3118 4.95652 14.2488 4.94833 14.1876 4.93247C12.8347 4.58318 11.4154 4.58318 10.0626 4.93247C9.96702 4.95696 9.86759 4.96236 9.76996 4.94837C9.67233 4.93438 9.57842 4.90127 9.4936 4.85094C9.40878 4.80061 9.33473 4.73404 9.27567 4.65505C9.21661 4.57605 9.17372 4.48619 9.14943 4.3906ZM3.25162 11.2343C3.34654 11.2607 3.44573 11.2681 3.54351 11.2561C3.6413 11.2442 3.73576 11.213 3.82152 11.1646C3.90727 11.1161 3.98263 11.0512 4.04329 10.9735C4.10395 10.8959 4.14873 10.8071 4.17506 10.7122C4.54873 9.36625 5.25846 8.13745 6.23756 7.14122C6.36575 6.99744 6.4337 6.80985 6.42733 6.61733C6.42096 6.42481 6.34076 6.24212 6.20335 6.10712C6.06595 5.97212 5.88187 5.89517 5.68926 5.89221C5.49666 5.88925 5.3103 5.96051 5.16881 6.09122C4.01211 7.26833 3.17338 8.71997 2.73131 10.31C2.70477 10.4048 2.69718 10.504 2.70896 10.6018C2.72075 10.6996 2.75168 10.7941 2.8 10.8799C2.84831 10.9658 2.91307 11.0413 2.99056 11.1021C3.06805 11.1629 3.15676 11.2078 3.25162 11.2343ZM14.1876 20.9112C12.8347 21.2605 11.4154 21.2605 10.0626 20.9112C9.87116 20.8649 9.66922 20.8957 9.50035 20.997C9.33148 21.0983 9.20923 21.262 9.15999 21.4527C9.11075 21.6433 9.13848 21.8457 9.23719 22.0161C9.3359 22.1865 9.49766 22.3113 9.68756 22.3634C11.2864 22.7758 12.9637 22.7758 14.5626 22.3634C14.7525 22.3113 14.9142 22.1865 15.0129 22.0161C15.1116 21.8457 15.1394 21.6433 15.0901 21.4527C15.0409 21.262 14.9186 21.0983 14.7498 20.997C14.5809 20.8957 14.379 20.8649 14.1876 20.9112ZM20.0751 10.714C20.1283 10.9057 20.2555 11.0684 20.4286 11.1664C20.6018 11.2643 20.8068 11.2894 20.9985 11.2362C21.1902 11.183 21.3529 11.0558 21.4508 10.8827C21.5488 10.7095 21.5739 10.5045 21.5207 10.3128C21.0783 8.72291 20.2396 7.27134 19.0832 6.09404C19.0148 6.02103 18.9326 5.96244 18.8412 5.9217C18.7499 5.88096 18.6513 5.8589 18.5514 5.85681C18.4514 5.85473 18.352 5.87266 18.259 5.90955C18.1661 5.94645 18.0814 6.00156 18.0101 6.07165C17.9388 6.14174 17.8821 6.22539 17.8436 6.31767C17.8051 6.40996 17.7854 6.50902 17.7857 6.60903C17.786 6.70904 17.8063 6.80797 17.8455 6.90001C17.8846 6.99205 17.9417 7.07534 18.0135 7.14497C18.9908 8.14153 19.6997 9.3694 20.0741 10.714H20.0751ZM21.5226 15.5318C21.0264 17.3207 20.0283 18.9301 18.6463 20.1697C18.5608 20.2468 18.4587 20.3032 18.3479 20.3346C18.2371 20.3659 18.1206 20.3713 18.0074 20.3504C17.8942 20.3295 17.7873 20.2827 17.695 20.2138C17.6028 20.1449 17.5276 20.0557 17.4754 19.9531C16.9738 18.965 16.2085 18.135 15.2641 17.5553C14.3197 16.9755 13.2332 16.6686 12.1251 16.6686C11.0169 16.6686 9.93044 16.9755 8.98605 17.5553C8.04166 18.135 7.27628 18.965 6.77475 19.9531C6.72258 20.0556 6.64752 20.1448 6.55538 20.2137C6.46323 20.2826 6.35648 20.3293 6.24338 20.3503C6.13027 20.3714 6.01385 20.3661 5.90311 20.3349C5.79237 20.3038 5.69028 20.2475 5.60475 20.1706C4.22272 18.9303 3.22465 17.3203 2.7285 15.5309C2.67541 15.3392 2.70065 15.1343 2.79867 14.9612C2.89669 14.7881 3.05945 14.661 3.25115 14.6079C3.44285 14.5549 3.64779 14.5801 3.82088 14.6781C3.99397 14.7761 4.12104 14.9389 4.17412 15.1306C4.50961 16.3426 5.11903 17.4614 5.95537 18.4006C6.79219 17.1869 7.96988 16.2483 9.33975 15.7034C8.60469 15.1248 8.06823 14.3314 7.805 13.4337C7.54177 12.5361 7.56486 11.5786 7.87104 10.6947C8.17722 9.81072 8.75128 9.04416 9.51337 8.50162C10.2755 7.95907 11.1877 7.66753 12.1232 7.66753C13.0587 7.66753 13.9709 7.95907 14.733 8.50162C15.4951 9.04416 16.0691 9.81072 16.3753 10.6947C16.6815 11.5786 16.7046 12.5361 16.4414 13.4337C16.1781 14.3314 15.6417 15.1248 14.9066 15.7034C16.2765 16.2483 17.4542 17.1869 18.291 18.4006C19.1273 17.4614 19.7368 16.3426 20.0722 15.1306C20.0986 15.0357 20.1434 14.9469 20.204 14.8693C20.2647 14.7916 20.3401 14.7267 20.4258 14.6783C20.5116 14.6298 20.606 14.5986 20.7038 14.5867C20.8016 14.5747 20.9008 14.5821 20.9957 14.6084C21.0906 14.6348 21.1794 14.6795 21.257 14.7402C21.3346 14.8009 21.3995 14.8762 21.448 14.962C21.4965 15.0477 21.5276 15.1422 21.5396 15.24C21.5516 15.3377 21.5442 15.4369 21.5179 15.5318H21.5226ZM12.1251 15.1718C12.7184 15.1718 13.2984 14.9959 13.7918 14.6663C14.2851 14.3366 14.6696 13.8681 14.8967 13.3199C15.1238 12.7717 15.1832 12.1685 15.0674 11.5866C14.9517 11.0046 14.6659 10.4701 14.2464 10.0505C13.8268 9.63097 13.2923 9.34525 12.7103 9.22949C12.1284 9.11374 11.5252 9.17315 10.977 9.40021C10.4288 9.62727 9.9603 10.0118 9.63065 10.5051C9.30101 10.9985 9.12506 11.5785 9.12506 12.1718C9.12506 12.9675 9.44113 13.7306 10.0037 14.2932C10.5663 14.8558 11.3294 15.1718 12.1251 15.1718Z" fill="#868C98"/>
</svg>
