<svg viewBox="0 0 20 21"  xmlns="http://www.w3.org/2000/svg">
<path d="M7.02437 1.9686C6.97563 1.77656 7.00487 1.57303 7.1057 1.40247C7.20652 1.23191 7.37074 1.10817 7.56249 1.05829C9.16133 0.645935 10.8387 0.645935 12.4375 1.05829C12.6146 1.10363 12.769 1.21209 12.8718 1.36328C12.9745 1.51447 13.0185 1.69798 12.9955 1.87933C12.9725 2.06068 12.884 2.22737 12.7467 2.34808C12.6094 2.46879 12.4328 2.53521 12.25 2.53485C12.1867 2.53452 12.1237 2.52633 12.0625 2.51048C10.7097 2.16118 9.29031 2.16118 7.93749 2.51048C7.84195 2.53496 7.74252 2.54037 7.64489 2.52638C7.54726 2.51238 7.45335 2.47927 7.36853 2.42894C7.28372 2.37861 7.20966 2.31204 7.1506 2.23305C7.09155 2.15406 7.04865 2.06419 7.02437 1.9686ZM1.12655 8.81235C1.22148 8.83872 1.32066 8.84612 1.41845 8.83415C1.51623 8.82217 1.6107 8.79105 1.69645 8.74256C1.7822 8.69407 1.85756 8.62915 1.91823 8.55153C1.97889 8.47391 2.02366 8.38509 2.04999 8.29016C2.42412 6.94445 3.13379 5.71575 4.11249 4.71923C4.24299 4.57573 4.31282 4.38725 4.30732 4.19337C4.30182 3.99948 4.22143 3.81527 4.08301 3.67939C3.94459 3.54352 3.75891 3.46656 3.56495 3.46466C3.371 3.46277 3.18386 3.53609 3.04281 3.66923C1.88653 4.84666 1.04787 6.29818 0.605305 7.88798C0.578782 7.9829 0.571228 8.08212 0.583074 8.17996C0.594921 8.2778 0.625935 8.37235 0.674345 8.4582C0.722754 8.54405 0.78761 8.61951 0.865203 8.68028C0.942796 8.74105 1.03161 8.78593 1.12655 8.81235ZM17.9491 8.2911C18.0023 8.4828 18.1294 8.64552 18.3026 8.74345C18.4758 8.84137 18.6808 8.8665 18.8725 8.81329C19.0642 8.76008 19.2269 8.6329 19.3248 8.45972C19.4228 8.28654 19.4479 8.08155 19.3947 7.88985C18.9523 6.29998 18.1136 4.84841 16.9572 3.6711C16.8881 3.60086 16.8059 3.54492 16.7152 3.50646C16.6245 3.468 16.5271 3.44778 16.4286 3.44695C16.3301 3.44613 16.2324 3.46471 16.1411 3.50164C16.0498 3.53857 15.9666 3.59313 15.8964 3.66219C15.8262 3.73126 15.7702 3.81349 15.7318 3.90418C15.6933 3.99486 15.6731 4.09224 15.6723 4.19074C15.6714 4.28924 15.69 4.38694 15.7269 4.47827C15.7639 4.56959 15.8184 4.65274 15.8875 4.72298C16.8656 5.71908 17.5749 6.94709 17.9491 8.29204V8.2911ZM18.8744 12.1874C18.7794 12.161 18.6801 12.1536 18.5823 12.1657C18.4845 12.1777 18.39 12.2089 18.3042 12.2575C18.2184 12.3061 18.1431 12.3711 18.0825 12.4488C18.0219 12.5265 17.9772 12.6155 17.9509 12.7105C17.6147 13.9208 17.0053 15.0379 16.1697 15.9758C15.6229 15.1849 14.9286 14.5069 14.125 13.9789C14.0567 13.9336 13.9755 13.9119 13.8937 13.9172C13.8119 13.9224 13.7341 13.9543 13.6722 14.008C12.6532 14.8897 11.3508 15.3749 10.0033 15.3749C8.65579 15.3749 7.35336 14.8897 6.33437 14.008C6.27236 13.9541 6.19437 13.9221 6.1124 13.9168C6.03042 13.9116 5.94899 13.9334 5.88062 13.9789C5.07181 14.4997 4.37144 15.172 3.81812 15.9589C2.99045 15.0236 2.38674 13.9121 2.05281 12.7086C1.9996 12.5169 1.87241 12.3542 1.69923 12.2563C1.52606 12.1583 1.32107 12.1332 1.12937 12.1864C0.937666 12.2396 0.774953 12.3668 0.677024 12.54C0.579094 12.7132 0.553971 12.9182 0.60718 13.1099C1.18041 15.1612 2.40915 16.9685 4.10581 18.2561C5.80248 19.5436 7.87385 20.2406 10.0037 20.2406C12.1336 20.2406 14.205 19.5436 15.9017 18.2561C17.5983 16.9685 18.8271 15.1612 19.4003 13.1099C19.4265 13.0147 19.4336 12.9154 19.4213 12.8175C19.409 12.7197 19.3776 12.6252 19.3287 12.5395C19.2799 12.4538 19.2146 12.3786 19.1366 12.3182C19.0587 12.2577 18.9695 12.2133 18.8744 12.1874ZM9.99999 13.8749C10.8158 13.8749 11.6134 13.6329 12.2917 13.1797C12.9701 12.7264 13.4988 12.0822 13.811 11.3284C14.1232 10.5747 14.2049 9.74528 14.0457 8.9451C13.8866 8.14493 13.4937 7.40993 12.9168 6.83304C12.3399 6.25614 11.6049 5.86328 10.8047 5.70411C10.0046 5.54495 9.17517 5.62664 8.42142 5.93885C7.66768 6.25106 7.02344 6.77977 6.57018 7.45812C6.11692 8.13648 5.87499 8.934 5.87499 9.74985C5.87623 10.8435 6.31123 11.892 7.08455 12.6653C7.85787 13.4386 8.90636 13.8736 9.99999 13.8749Z" />
</svg>
