<svg width="18" height="18" viewBox="0 0 18 18" fill="none" xmlns="http://www.w3.org/2000/svg">
<path d="M11.2496 14.25C11.2498 14.6284 11.1068 14.9929 10.8495 15.2704C10.5922 15.5479 10.2395 15.7179 9.86214 15.7463L9.74964 15.75H8.24964C7.87121 15.7501 7.50672 15.6072 7.22923 15.3499C6.95175 15.0926 6.78177 14.7399 6.75339 14.3625L6.74964 14.25H11.2496ZM8.99964 1.5C10.3609 1.49998 11.6689 2.02867 12.6478 2.97456C13.6267 3.92044 14.2 5.20957 14.2466 6.57L14.2496 6.75V9.573L15.6161 12.306C15.6758 12.4253 15.7056 12.5572 15.7031 12.6905C15.7006 12.8238 15.6658 12.9545 15.6018 13.0714C15.5377 13.1884 15.4463 13.288 15.3353 13.3619C15.2242 13.4357 15.097 13.4816 14.9644 13.4955L14.8781 13.5H3.12114C2.98777 13.5 2.85637 13.4677 2.73821 13.4059C2.62005 13.344 2.51865 13.2544 2.44271 13.1448C2.36676 13.0351 2.31853 12.9087 2.30215 12.7763C2.28576 12.644 2.30172 12.5096 2.34864 12.3848L2.38314 12.306L3.74964 9.573V6.75C3.74964 5.35761 4.30277 4.02226 5.28733 3.03769C6.2719 2.05312 7.60726 1.5 8.99964 1.5Z" fill="#4C4E5C"/>
</svg>
