<svg width="16" height="16" viewBox="0 0 16 16" fill="none" xmlns="http://www.w3.org/2000/svg">
<path fill-rule="evenodd" clip-rule="evenodd" d="M5.5 2.16667C5.5 1.72464 5.67559 1.30072 5.98816 0.988155C6.30072 0.675595 6.72464 0.5 7.16667 0.5H8.83333C9.27536 0.5 9.69928 0.675595 10.0118 0.988155C10.3244 1.30072 10.5 1.72464 10.5 2.16667V5.5H13.8333C14.2754 5.5 14.6993 5.67559 15.0118 5.98816C15.3244 6.30072 15.5 6.72464 15.5 7.16667V8.83333C15.5 9.27536 15.3244 9.69928 15.0118 10.0118C14.6993 10.3244 14.2754 10.5 13.8333 10.5H10.5V13.8333C10.5 14.2754 10.3244 14.6993 10.0118 15.0118C9.69928 15.3244 9.27536 15.5 8.83333 15.5H7.16667C6.72464 15.5 6.30072 15.3244 5.98816 15.0118C5.67559 14.6993 5.5 14.2754 5.5 13.8333V10.5H2.16667C1.72464 10.5 1.30072 10.3244 0.988155 10.0118C0.675595 9.69928 0.5 9.27536 0.5 8.83333V7.16667C0.5 6.72464 0.675595 6.30072 0.988155 5.98816C1.30072 5.67559 1.72464 5.5 2.16667 5.5H5.5V2.16667Z" />
</svg>
