<svg width="17" height="16" viewBox="0 0 17 16" fill="none" xmlns="http://www.w3.org/2000/svg">
<path d="M16.8599 2.05154L11.8599 14.9682C11.8105 15.0961 11.7302 15.2099 11.6262 15.2993C11.5223 15.3888 11.3978 15.4512 11.264 15.4811C11.1301 15.5109 10.9909 15.5073 10.8588 15.4704C10.7267 15.4336 10.6057 15.3647 10.5066 15.2699L7.68827 12.574L5.95994 14.3015C5.90162 14.3597 5.82738 14.3992 5.7466 14.4152C5.66582 14.4312 5.58211 14.4229 5.50606 14.3913C5.43 14.3597 5.365 14.3063 5.31927 14.2379C5.27354 14.1694 5.24912 14.0889 5.2491 14.0065V10.2407L0.92327 6.1032C0.815939 6.00052 0.738006 5.87101 0.697538 5.72809C0.65707 5.58517 0.655539 5.43403 0.693103 5.29032C0.730666 5.14661 0.80596 5.01555 0.911188 4.91071C1.01642 4.80587 1.14775 4.73107 1.2916 4.69404L15.8749 0.944035C16.0232 0.906055 16.1791 0.909639 16.3254 0.954394C16.4718 0.99915 16.603 1.08335 16.7047 1.19775C16.8063 1.31216 16.8745 1.45235 16.9018 1.60296C16.929 1.75356 16.9142 1.90876 16.8591 2.05154H16.8599ZM14.8324 3.00154L5.69244 8.9607L7.13827 10.344L14.8324 3.00154Z" />
</svg>
