<svg width="20" height="20" viewBox="0 0 20 20" fill="none" xmlns="http://www.w3.org/2000/svg">
<path d="M16.6673 7.91705C16.9781 7.91707 17.2776 8.03282 17.5077 8.24173C17.7377 8.45065 17.8817 8.73775 17.9115 9.04705L17.9173 9.16705V12.5004C17.9173 13.4644 17.5461 14.3913 16.8807 15.0888C16.2153 15.7863 15.3069 16.2008 14.344 16.2462L14.1673 16.2504H7.13398L7.11732 16.5104C7.11439 16.5493 7.11133 16.5882 7.10815 16.6271C7.06148 17.2262 6.48398 17.6021 5.99898 17.3479L5.73732 17.2079L5.43065 17.0337C5.37407 17.001 5.31768 16.9679 5.26148 16.9346L4.89565 16.7104C4.63508 16.5458 4.37888 16.3743 4.12732 16.1962L3.80648 15.9629L3.53732 15.7587C3.49911 15.7292 3.46105 15.6995 3.42315 15.6696C3.01565 15.3446 3.03148 14.6737 3.46482 14.3312L3.57815 14.2421L3.84482 14.0404L4.16148 13.8112L4.52648 13.5604C4.72233 13.4296 4.9207 13.3026 5.12148 13.1796L5.47648 12.9671L5.78898 12.7912L6.05232 12.6496C6.53315 12.3996 7.05815 12.7204 7.10398 13.2796L7.13565 13.7504H14.1673C14.4781 13.7504 14.7776 13.6346 15.0077 13.4257C15.2377 13.2168 15.3817 12.9297 15.4115 12.6204L15.4173 12.5004V9.16705C15.4173 8.83553 15.549 8.51759 15.7834 8.28317C16.0179 8.04875 16.3358 7.91705 16.6673 7.91705ZM14.0023 2.65289L14.264 2.79289L14.5707 2.96705C14.6257 2.99872 14.6823 3.03122 14.7398 3.06622L15.1056 3.29039C15.3662 3.455 15.6224 3.62645 15.874 3.80455L16.1948 4.03789L16.464 4.24205L16.5782 4.33122C16.9857 4.65622 16.9698 5.32705 16.5365 5.66955L16.4232 5.75872L16.1565 5.96039L15.8398 6.18955C15.5267 6.41033 15.2065 6.62099 14.8798 6.82122L14.5248 7.03372L14.2123 7.20955L13.949 7.35122C13.4682 7.60122 12.9432 7.28038 12.8982 6.72122L12.8648 6.25039H5.83398C5.50246 6.25039 5.18452 6.38208 4.9501 6.6165C4.71568 6.85092 4.58398 7.16886 4.58398 7.50039V10.8337C4.58398 11.1652 4.45229 11.4832 4.21787 11.7176C3.98345 11.952 3.6655 12.0837 3.33398 12.0837C3.00246 12.0837 2.68452 11.952 2.4501 11.7176C2.21568 11.4832 2.08398 11.1652 2.08398 10.8337V7.50039C2.08398 6.50582 2.47907 5.552 3.18233 4.84873C3.8856 4.14547 4.83942 3.75039 5.83398 3.75039H12.8673L12.8932 3.37372C12.9398 2.77455 13.5173 2.39872 14.0023 2.65289Z" />
</svg>
