<svg viewBox="0 0 24 19"  xmlns="http://www.w3.org/2000/svg">
<path d="M23.25 18C23.25 18.1989 23.171 18.3897 23.0303 18.5303C22.8897 18.671 22.6989 18.75 22.5 18.75H1.5C1.30109 18.75 1.11032 18.671 0.96967 18.5303C0.829018 18.3897 0.75 18.1989 0.75 18C0.75 17.8011 0.829018 17.6103 0.96967 17.4697C1.11032 17.329 1.30109 17.25 1.5 17.25H22.5C22.6989 17.25 22.8897 17.329 23.0303 17.4697C23.171 17.6103 23.25 17.8011 23.25 18ZM1.52812 7.70436C1.48352 7.54707 1.49152 7.37952 1.55093 7.22721C1.61033 7.07489 1.71787 6.94616 1.85719 6.86061L11.6072 0.860608C11.7253 0.787968 11.8613 0.749512 12 0.749512C12.1387 0.749512 12.2747 0.787968 12.3928 0.860608L22.1428 6.86061C22.2822 6.94606 22.3898 7.0747 22.4493 7.22695C22.5088 7.3792 22.517 7.54673 22.4725 7.70403C22.428 7.86133 22.3334 7.9998 22.2029 8.09835C22.0725 8.1969 21.9135 8.25015 21.75 8.24998H19.5V14.25H21C21.1989 14.25 21.3897 14.329 21.5303 14.4697C21.671 14.6103 21.75 14.8011 21.75 15C21.75 15.1989 21.671 15.3897 21.5303 15.5303C21.3897 15.671 21.1989 15.75 21 15.75H3C2.80109 15.75 2.61032 15.671 2.46967 15.5303C2.32902 15.3897 2.25 15.1989 2.25 15C2.25 14.8011 2.32902 14.6103 2.46967 14.4697C2.61032 14.329 2.80109 14.25 3 14.25H4.5V8.24998H2.25C2.08668 8.25004 1.9278 8.19678 1.79751 8.0983C1.66721 7.99982 1.57263 7.8615 1.52812 7.70436ZM13.5 13.5C13.5 13.6989 13.579 13.8897 13.7197 14.0303C13.8603 14.171 14.0511 14.25 14.25 14.25C14.4489 14.25 14.6397 14.171 14.7803 14.0303C14.921 13.8897 15 13.6989 15 13.5V8.99998C15 8.80107 14.921 8.61031 14.7803 8.46965C14.6397 8.329 14.4489 8.24998 14.25 8.24998C14.0511 8.24998 13.8603 8.329 13.7197 8.46965C13.579 8.61031 13.5 8.80107 13.5 8.99998V13.5ZM9 13.5C9 13.6989 9.07902 13.8897 9.21967 14.0303C9.36032 14.171 9.55109 14.25 9.75 14.25C9.94891 14.25 10.1397 14.171 10.2803 14.0303C10.421 13.8897 10.5 13.6989 10.5 13.5V8.99998C10.5 8.80107 10.421 8.61031 10.2803 8.46965C10.1397 8.329 9.94891 8.24998 9.75 8.24998C9.55109 8.24998 9.36032 8.329 9.21967 8.46965C9.07902 8.61031 9 8.80107 9 8.99998V13.5Z" />
</svg>
