<svg width="12" height="12" viewBox="0 0 12 12" fill="none" xmlns="http://www.w3.org/2000/svg">
<g clip-path="url(#clip0_5239_157765)">
<path d="M1 6C1 4.11438 1 3.17157 1.58579 2.58579C2.17157 2 3.11438 2 5 2H7C8.88562 2 9.82843 2 10.4142 2.58579C11 3.17157 11 4.11438 11 6V7C11 8.88562 11 9.82843 10.4142 10.4142C9.82843 11 8.88562 11 7 11H5C3.11438 11 2.17157 11 1.58579 10.4142C1 9.82843 1 8.88562 1 7V6Z" stroke="#FFF"/>
<path d="M3.5 2V1.25" stroke="#FFF" stroke-linecap="round"/>
<path d="M8.5 2V1.25" stroke="#FFF" stroke-linecap="round"/>
<path d="M1.25 4.5H10.75" stroke="#FFF" stroke-linecap="round"/>
</g>
<defs>
<clipPath id="clip0_5239_157765">
<path d="M0 5C0 2.23858 2.23858 0 5 0H7C9.76142 0 12 2.23858 12 5V12H0V5Z" fill="white"/>
</clipPath>
</defs>
</svg>
