<svg viewBox="0 0 23 19" fill="none" xmlns="http://www.w3.org/2000/svg">
<path d="M1.625 7.6719H3.875V13.6719H2.375C2.17609 13.6719 1.98532 13.7509 1.84467 13.8916C1.70402 14.0322 1.625 14.223 1.625 14.4219C1.625 14.6208 1.70402 14.8116 1.84467 14.9522C1.98532 15.0929 2.17609 15.1719 2.375 15.1719H20.375C20.5739 15.1719 20.7647 15.0929 20.9053 14.9522C21.046 14.8116 21.125 14.6208 21.125 14.4219C21.125 14.223 21.046 14.0322 20.9053 13.8916C20.7647 13.7509 20.5739 13.6719 20.375 13.6719H18.875V7.6719H21.125C21.2882 7.67173 21.4469 7.61835 21.577 7.51985C21.7071 7.42134 21.8015 7.28309 21.8459 7.12607C21.8903 6.96905 21.8823 6.80182 21.8231 6.64976C21.7639 6.4977 21.6567 6.36909 21.5178 6.28346L11.7678 0.283459C11.6497 0.21082 11.5137 0.172363 11.375 0.172363C11.2363 0.172363 11.1003 0.21082 10.9822 0.283459L1.23219 6.28346C1.09328 6.36909 0.986084 6.4977 0.926872 6.64976C0.86766 6.80182 0.859659 6.96905 0.904083 7.12607C0.948508 7.28309 1.04293 7.42134 1.17303 7.51985C1.30314 7.61835 1.46181 7.67173 1.625 7.6719ZM5.375 7.6719H8.375V13.6719H5.375V7.6719ZM12.875 7.6719V13.6719H9.875V7.6719H12.875ZM17.375 13.6719H14.375V7.6719H17.375V13.6719ZM11.375 1.80221L18.4756 6.1719H4.27437L11.375 1.80221ZM22.625 17.4219C22.625 17.6208 22.546 17.8116 22.4053 17.9522C22.2647 18.0929 22.0739 18.1719 21.875 18.1719H0.875C0.676088 18.1719 0.485322 18.0929 0.34467 17.9522C0.204018 17.8116 0.125 17.6208 0.125 17.4219C0.125 17.223 0.204018 17.0322 0.34467 16.8916C0.485322 16.7509 0.676088 16.6719 0.875 16.6719H21.875C22.0739 16.6719 22.2647 16.7509 22.4053 16.8916C22.546 17.0322 22.625 17.223 22.625 17.4219Z" fill="#868C98"/>
</svg>
