<svg  viewBox="0 0 21 17"  xmlns="http://www.w3.org/2000/svg">
<path d="M18.6016 0.25H2.10156C1.70374 0.25 1.32221 0.408035 1.0409 0.68934C0.759598 0.970644 0.601563 1.35218 0.601562 1.75V16C0.601631 16.1278 0.63437 16.2535 0.696672 16.3651C0.758973 16.4768 0.84877 16.5706 0.957537 16.6378C1.0663 16.7049 1.19043 16.7432 1.31813 16.7489C1.44583 16.7546 1.57287 16.7275 1.68719 16.6703L4.35156 15.3381L7.01594 16.6703C7.12013 16.7225 7.23505 16.7496 7.35156 16.7496C7.46808 16.7496 7.58299 16.7225 7.68719 16.6703L10.3516 15.3381L13.0159 16.6703C13.1201 16.7225 13.235 16.7496 13.3516 16.7496C13.4681 16.7496 13.583 16.7225 13.6872 16.6703L16.3516 15.3381L19.0159 16.6703C19.1303 16.7275 19.2573 16.7546 19.385 16.7489C19.5127 16.7432 19.6368 16.7049 19.7456 16.6378C19.8544 16.5706 19.9442 16.4768 20.0065 16.3651C20.0688 16.2535 20.1015 16.1278 20.1016 16V1.75C20.1016 1.35218 19.9435 0.970644 19.6622 0.68934C19.3809 0.408035 18.9994 0.25 18.6016 0.25ZM14.8516 10H5.85156C5.65265 10 5.46188 9.92098 5.32123 9.78033C5.18058 9.63968 5.10156 9.44891 5.10156 9.25C5.10156 9.05109 5.18058 8.86032 5.32123 8.71967C5.46188 8.57902 5.65265 8.5 5.85156 8.5H14.8516C15.0505 8.5 15.2412 8.57902 15.3819 8.71967C15.5225 8.86032 15.6016 9.05109 15.6016 9.25C15.6016 9.44891 15.5225 9.63968 15.3819 9.78033C15.2412 9.92098 15.0505 10 14.8516 10ZM14.8516 7H5.85156C5.65265 7 5.46188 6.92098 5.32123 6.78033C5.18058 6.63968 5.10156 6.44891 5.10156 6.25C5.10156 6.05109 5.18058 5.86032 5.32123 5.71967C5.46188 5.57902 5.65265 5.5 5.85156 5.5H14.8516C15.0505 5.5 15.2412 5.57902 15.3819 5.71967C15.5225 5.86032 15.6016 6.05109 15.6016 6.25C15.6016 6.44891 15.5225 6.63968 15.3819 6.78033C15.2412 6.92098 15.0505 7 14.8516 7Z"/>
</svg>
