<svg viewBox="0 0 21 18" fill="none" xmlns="http://www.w3.org/2000/svg">
<path d="M5.375 6.67188C5.375 6.47296 5.45402 6.2822 5.59467 6.14155C5.73532 6.00089 5.92609 5.92188 6.125 5.92188H15.125C15.3239 5.92188 15.5147 6.00089 15.6553 6.14155C15.796 6.2822 15.875 6.47296 15.875 6.67188C15.875 6.87079 15.796 7.06155 15.6553 7.2022C15.5147 7.34286 15.3239 7.42188 15.125 7.42188H6.125C5.92609 7.42188 5.73532 7.34286 5.59467 7.2022C5.45402 7.06155 5.375 6.87079 5.375 6.67188ZM6.125 10.4219H15.125C15.3239 10.4219 15.5147 10.3429 15.6553 10.2022C15.796 10.0616 15.875 9.87079 15.875 9.67188C15.875 9.47296 15.796 9.2822 15.6553 9.14154C15.5147 9.00089 15.3239 8.92188 15.125 8.92188H6.125C5.92609 8.92188 5.73532 9.00089 5.59467 9.14154C5.45402 9.2822 5.375 9.47296 5.375 9.67188C5.375 9.87079 5.45402 10.0616 5.59467 10.2022C5.73532 10.3429 5.92609 10.4219 6.125 10.4219ZM20.375 2.17188V16.4219C20.3749 16.5497 20.3422 16.6754 20.2799 16.787C20.2176 16.8986 20.1278 16.9925 20.019 17.0596C19.9103 17.1268 19.7861 17.165 19.6584 17.1707C19.5307 17.1764 19.4037 17.1494 19.2894 17.0922L16.625 15.76L13.9606 17.0922C13.8564 17.1443 13.7415 17.1715 13.625 17.1715C13.5085 17.1715 13.3936 17.1443 13.2894 17.0922L10.625 15.76L7.96063 17.0922C7.85643 17.1443 7.74152 17.1715 7.625 17.1715C7.50848 17.1715 7.39357 17.1443 7.28937 17.0922L4.625 15.76L1.96063 17.0922C1.84631 17.1494 1.71927 17.1764 1.59157 17.1707C1.46387 17.165 1.33974 17.1268 1.23097 17.0596C1.12221 16.9925 1.03241 16.8986 0.970109 16.787C0.907807 16.6754 0.875068 16.5497 0.875 16.4219V2.17188C0.875 1.77405 1.03304 1.39252 1.31434 1.11121C1.59564 0.82991 1.97718 0.671875 2.375 0.671875H18.875C19.2728 0.671875 19.6544 0.82991 19.9357 1.11121C20.217 1.39252 20.375 1.77405 20.375 2.17188ZM18.875 2.17188H2.375V15.2087L4.28937 14.2506C4.39357 14.1985 4.50849 14.1713 4.625 14.1713C4.74151 14.1713 4.85643 14.1985 4.96063 14.2506L7.625 15.5837L10.2894 14.2506C10.3936 14.1985 10.5085 14.1713 10.625 14.1713C10.7415 14.1713 10.8564 14.1985 10.9606 14.2506L13.625 15.5837L16.2894 14.2506C16.3936 14.1985 16.5085 14.1713 16.625 14.1713C16.7415 14.1713 16.8564 14.1985 16.9606 14.2506L18.875 15.2087V2.17188Z" fill="#868C98"/>
</svg>
